<svg xmlns="http://www.w3.org/2000/svg" xlink="http://www.w3.org/1999/xlink" viewBox="0 0 70 32" id="svg483590744"><path d="M 1.929 31.87 C 1.519 31.719 1.129 31.481 0.827 31.179 C 0.632 31.006 0.481 30.812 0.373 30.574 C 0.2 30.271 0.07 29.926 0.027 29.58 C -0.005 29.353 -0.001 29.115 0.003 28.873 C 0.004 28.792 0.005 28.711 0.005 28.629 C 0.02 28.081 0.015 27.523 0.01 26.969 C 0.008 26.693 0.005 26.417 0.005 26.145 L 0.005 22.687 L 0.005 18.604 L 0.005 16.681 C 0.005 15.06 0.222 13.504 0.632 12.035 C 0.87 11.171 1.173 10.35 1.54 9.55 C 2.016 8.47 2.599 7.476 3.291 6.547 C 3.615 6.093 3.983 5.661 4.35 5.25 C 4.44 5.161 4.523 5.072 4.604 4.986 C 4.68 4.905 4.753 4.827 4.826 4.754 L 5.15 4.429 C 5.496 4.105 5.842 3.803 6.188 3.522 C 6.987 2.874 7.852 2.29 8.76 1.815 C 10.943 0.648 13.407 0 16.001 0 C 19.157 0 22.119 0.951 24.561 2.614 C 25.08 2.96 25.577 3.327 26.053 3.738 C 26.355 3.997 26.658 4.278 26.939 4.559 L 27.134 4.754 C 27.306 4.926 27.458 5.078 27.609 5.25 C 27.977 5.661 28.344 6.093 28.668 6.547 C 29.338 7.476 29.944 8.492 30.419 9.55 C 30.787 10.35 31.089 11.171 31.327 12.035 C 31.738 13.504 31.954 15.06 31.954 16.681 L 31.954 18.604 L 31.954 23.703 L 31.954 26.253 C 31.954 26.527 31.951 26.802 31.949 27.075 C 31.944 27.62 31.939 28.162 31.954 28.694 C 31.976 28.997 31.976 29.299 31.932 29.602 C 31.867 29.947 31.759 30.293 31.586 30.596 C 31.457 30.812 31.305 31.006 31.133 31.179 C 30.959 31.373 30.743 31.525 30.506 31.654 C 30.116 31.87 29.663 32 29.165 32 C 28.43 32 27.717 31.698 27.198 31.179 C 26.701 30.682 26.377 29.969 26.377 29.191 L 26.377 25.799 L 26.377 16.659 C 26.377 10.544 21.708 5.575 15.98 5.575 C 10.251 5.575 5.582 10.544 5.582 16.659 L 5.582 20.872 L 5.582 28.456 L 5.582 28.802 C 5.604 29.299 5.561 29.774 5.388 30.228 C 5.388 30.271 5.388 30.293 5.366 30.315 C 4.934 31.33 3.896 32 2.794 32 C 2.491 32 2.21 31.957 1.929 31.87 Z M 67.469 0.13 C 67.88 0.281 68.269 0.519 68.571 0.821 C 68.766 0.994 68.917 1.21 69.069 1.426 C 69.241 1.729 69.371 2.074 69.414 2.42 C 69.447 2.647 69.443 2.885 69.439 3.127 C 69.437 3.208 69.436 3.289 69.436 3.371 C 69.422 3.919 69.426 4.477 69.431 5.031 C 69.434 5.307 69.436 5.583 69.436 5.856 L 69.436 9.313 L 69.436 13.396 L 69.436 15.319 C 69.436 16.918 69.22 18.496 68.809 19.965 C 68.571 20.829 68.269 21.65 67.901 22.45 C 67.426 23.53 66.842 24.524 66.15 25.453 C 65.826 25.907 65.459 26.339 65.091 26.75 C 65.002 26.839 64.918 26.928 64.837 27.014 C 64.762 27.095 64.689 27.173 64.616 27.246 L 64.291 27.57 C 63.946 27.895 63.6 28.197 63.254 28.478 C 62.454 29.126 61.589 29.71 60.682 30.185 C 58.498 31.352 56.034 32 53.44 32 C 50.284 32 47.323 31.049 44.837 29.386 C 44.318 29.04 43.821 28.672 43.345 28.262 C 43.043 28.003 42.74 27.722 42.459 27.441 L 42.265 27.246 C 42.092 27.074 41.94 26.922 41.789 26.75 C 41.422 26.339 41.054 25.907 40.73 25.453 C 40.06 24.524 39.455 23.508 38.979 22.45 C 38.612 21.65 38.309 20.829 38.071 19.965 C 37.66 18.496 37.444 16.94 37.444 15.319 L 37.444 13.396 L 37.444 8.297 L 37.444 5.747 C 37.444 5.473 37.447 5.198 37.449 4.925 C 37.454 4.38 37.459 3.838 37.444 3.306 C 37.423 3.003 37.423 2.701 37.466 2.398 C 37.531 2.053 37.639 1.707 37.812 1.404 C 37.941 1.188 38.093 0.994 38.266 0.821 C 38.439 0.627 38.655 0.475 38.893 0.346 C 39.282 0.13 39.736 0 40.233 0 C 40.968 0 41.681 0.302 42.2 0.821 C 42.697 1.318 43.021 2.031 43.021 2.809 L 43.021 6.201 L 43.021 15.341 C 43.021 21.456 47.69 26.425 53.419 26.425 C 59.147 26.425 63.816 21.456 63.816 15.341 L 63.816 11.128 L 63.816 3.544 L 63.816 3.198 C 63.794 2.701 63.837 2.226 64.01 1.772 C 64.01 1.729 64.01 1.707 64.032 1.685 C 64.464 0.67 65.502 0 66.604 0 C 66.907 0 67.188 0.043 67.469 0.13 Z" fill="var(--token-337fd79e-06e9-40e4-ba93-62a642c7aa66, rgb(1, 1, 1))"></path></svg>